<svg xmlns="http://www.w3.org/2000/svg" viewBox="0 0 477.9 484.28"><defs><style>.cls-1{fill:#2f2f2f;}</style></defs><title>Ресурс 1</title><g id="Слой_2" data-name="Слой 2"><g id="Слой_1-2" data-name="Слой 1"><polygon points="365.23 0.62 364.89 0.62 364.89 0 365.23 0.62"/><polygon class="cls-1" points="477.9 59.87 359.89 78.04 266.04 92.5 239.83 96.52 119.35 78.21 119.39 78.25 0 59.87 35.4 122.95 153.42 211.32 153.42 144.49 191.19 144.49 191.19 273.28 233.06 278.92 286.94 285.69 286.75 216.32 249.62 194.2 249.83 233.9 222.24 233 222.24 144.37 324.48 194.07 324.48 294.93 348.73 289.99 477.9 59.87"/><polygon class="cls-1" points="309.54 313.68 227.28 343.83 153.42 292.32 153.42 227.13 81.75 205.5 181.15 382.6 201.44 418.75 238.95 484.28 275.29 420.83 296.75 382.6 335.16 314.16 309.54 313.68"/></g></g></svg>