<svg id="Слой_1" data-name="Слой 1" xmlns="http://www.w3.org/2000/svg" viewBox="0 0 536.55 476.42"><defs><style>.cls-1,.cls-2{fill:none;}.cls-2{stroke:#2f2f2f;stroke-miterlimit:10;stroke-width:2px;}.cls-3{fill:#2f2f2f;}</style></defs><title>Безымянный-3</title><path class="cls-1" d="M257.23,69.53" transform="translate(-243.72 -17.14)"/><polygon points="13.62 52.61 13.39 52.61 13.39 52.19 13.62 52.61"/><polygon class="cls-2" points="534.68 1.3 403.12 21.64 298.48 37.83 269.26 42.33 134.94 21.83 134.98 21.87 1.87 1.3 41.34 71.91 172.92 170.84 172.92 96.03 215.03 96.03 215.03 240.2 261.71 246.52 321.79 254.1 321.57 176.45 280.17 151.67 280.41 196.13 249.65 195.12 249.65 95.89 363.64 151.53 363.64 264.44 390.67 258.92 534.68 1.3"/><polygon class="cls-3" points="346.97 285.43 255.27 319.19 172.92 261.53 172.92 188.54 93.01 164.33 203.84 362.59 226.46 403.06 268.28 476.42 308.79 405.39 332.72 362.59 375.55 285.97 346.97 285.43"/></svg>