<svg id="navigation_logo" data-name="navigation_logo" xmlns="http://www.w3.org/2000/svg" viewBox="0 0 1003.93 331.26"><defs><style>.cls-1{fill:none;}.cls-2{fill:#fff;}</style></defs><title>Безымянный-3</title><path class="cls-1" d="M257.23,69.53" transform="translate(-10.03 -69.32)"/><polygon points="247.31 0.42 247.08 0.42 247.08 0 247.31 0.42"/><polygon class="cls-2" points="323.6 40.71 243.7 53.06 180.15 62.89 162.4 65.63 80.82 53.18 80.84 53.2 0 40.71 23.97 83.59 103.89 143.68 103.89 98.24 129.47 98.24 129.47 185.81 157.81 189.64 194.3 194.25 194.17 147.08 169.03 132.04 169.17 159.03 150.49 158.42 150.49 98.16 219.72 131.95 219.72 200.53 236.14 197.17 323.6 40.71"/><polygon class="cls-2" points="209.6 213.28 153.9 233.78 103.89 198.76 103.89 154.43 55.35 139.73 122.66 260.14 136.41 284.72 161.8 329.27 186.41 286.13 200.94 260.14 226.95 213.6 209.6 213.28"/><path class="cls-2" d="M524,112.27l-73.41,116H424.21l-27-116h27.67L443.59,195l52.54-82.69Z" transform="translate(-10.03 -69.32)"/><path class="cls-2" d="M610.3,139.12l-17.73,89.15H568l1.66-8.78q-11.1,10.11-27.34,10.11a39.3,39.3,0,0,1-19.22-4.81,35.76,35.76,0,0,1-14-13.84q-5.22-9-5.22-21.29a54,54,0,0,1,6.55-26.6,48.46,48.46,0,0,1,17.81-18.56,47.71,47.71,0,0,1,24.86-6.71q20.55,0,29,13.43l2.32-12.1Zm-46.4,65.37a25.16,25.16,0,0,0,9.28-10.36,33.61,33.61,0,0,0,3.31-15.24q0-9.12-5.38-14.42t-15-5.3a24.79,24.79,0,0,0-22.87,14.09,33.61,33.61,0,0,0-3.31,15.24q0,9.12,5.39,14.42t15,5.3A25.08,25.08,0,0,0,563.9,204.49Z" transform="translate(-10.03 -69.32)"/><path class="cls-2" d="M639.46,224.63a36.91,36.91,0,0,1-15.82-14,39.13,39.13,0,0,1-5.55-21,51.07,51.07,0,0,1,7-26.51,49.75,49.75,0,0,1,19.38-18.56,57.43,57.43,0,0,1,28-6.8q14.25,0,24.61,5.89a37,37,0,0,1,15.49,16.65l-21.87,10.94q-5.8-12.11-19.89-12.1a25.26,25.26,0,0,0-23.11,14.09,32.47,32.47,0,0,0-3.4,15.07q0,9.12,5.47,14.5T665,208.22q14.25,0,21.88-11.93l19,11.93A43.88,43.88,0,0,1,688.26,224a54.19,54.19,0,0,1-24.77,5.64Q649.74,229.6,639.46,224.63Z" transform="translate(-10.03 -69.32)"/><path class="cls-2" d="M819.26,139.12l-55.35,89.15H737.23l-19.72-89.15H743L756,199.93l37.45-60.81Z" transform="translate(-10.03 -69.32)"/><path class="cls-2" d="M904.93,190.65H836.66q1.32,18.24,23,18.23a39.32,39.32,0,0,0,13-2.15,33.26,33.26,0,0,0,10.85-6.13l10.78,17.07a51.55,51.55,0,0,1-17.07,8.94,67.81,67.81,0,0,1-20.22,3q-13.75,0-24.11-4.89a36.17,36.17,0,0,1-15.91-14,39.69,39.69,0,0,1-5.55-21.05,53.07,53.07,0,0,1,6.71-26.6,48.32,48.32,0,0,1,18.64-18.56A54.52,54.52,0,0,1,864,137.79q12.93,0,22.45,4.81a34.78,34.78,0,0,1,14.75,13.75,40.37,40.37,0,0,1,5.22,20.72A70.09,70.09,0,0,1,904.93,190.65Zm-57.5-28.58a26.35,26.35,0,0,0-8.95,13.51h44.25q0-8.62-5.39-13.51t-14.5-4.89A24.36,24.36,0,0,0,847.43,162.07Z" transform="translate(-10.03 -69.32)"/><path class="cls-2" d="M938.24,105.31h25.85l-24.53,123H913.71Z" transform="translate(-10.03 -69.32)"/><path class="cls-2" d="M988.12,105.31H1014l-24.53,123H963.59Z" transform="translate(-10.03 -69.32)"/><path class="cls-2" d="M485.25,338.78h24.53l-9.62,47.72a64.59,64.59,0,0,1-20.38,10.44,79.66,79.66,0,0,1-24,3.65q-17.4,0-30.32-6.3a47,47,0,0,1-20-17.73q-7.05-11.43-7-26.35a70.35,70.35,0,0,1,9.11-35.63,64.65,64.65,0,0,1,25.69-24.94q16.56-9,38.11-9,16.57,0,28.75,5.14a46.6,46.6,0,0,1,19.64,15.08L500.5,316.4a35.33,35.33,0,0,0-13.1-9.86,44.32,44.32,0,0,0-17.23-3.06,45.57,45.57,0,0,0-23.36,5.88,40.77,40.77,0,0,0-15.66,16.16,47.57,47.57,0,0,0-5.56,23q0,13.43,8.7,21.3t24.94,7.87a45.27,45.27,0,0,0,19.23-4.14Z" transform="translate(-10.03 -69.32)"/><path class="cls-2" d="M629.09,309.44,611.36,398.6H586.83l1.66-8.79q-11.1,10.11-27.34,10.11a39.47,39.47,0,0,1-19.23-4.8,35.87,35.87,0,0,1-14-13.84q-5.22-9-5.22-21.29a54,54,0,0,1,6.55-26.6,48.32,48.32,0,0,1,17.81-18.56,47.71,47.71,0,0,1,24.86-6.71q20.54,0,29,13.42l2.32-12.1Zm-46.4,65.38A25.23,25.23,0,0,0,592,364.46a33.64,33.64,0,0,0,3.31-15.24q0-9.12-5.38-14.42t-15-5.3A24.76,24.76,0,0,0,552,343.58a33.65,33.65,0,0,0-3.31,15.25q0,9.1,5.38,14.41t15,5.31A25.17,25.17,0,0,0,582.69,374.82Z" transform="translate(-10.03 -69.32)"/><path class="cls-2" d="M788,316q8.63,7.88,8.62,22.29a54.45,54.45,0,0,1-1.16,10.94l-9.78,49.38H759.83L769.28,351a34.77,34.77,0,0,0,.66-6.8q0-6.78-3.56-10.27t-10.52-3.48q-18.74,0-23.37,22.37l-9.11,45.74H697.52L707,351a33.88,33.88,0,0,0,.66-6.63q0-6.8-3.56-10.36t-10.52-3.56q-18.74,0-23.53,22.7l-8.95,45.41H635.22L653,309.44h24.52l-2,9.28a40.09,40.09,0,0,1,28-10.6A35.33,35.33,0,0,1,720,311.85a24.54,24.54,0,0,1,10.85,10.85,43.46,43.46,0,0,1,15.08-10.85,47,47,0,0,1,18.89-3.73Q779.38,308.12,788,316Z" transform="translate(-10.03 -69.32)"/><path class="cls-2" d="M905.33,361H837.05q1.34,18.22,23,18.23a39.37,39.37,0,0,0,13-2.16A32.9,32.9,0,0,0,884,370.92L894.72,388a51.38,51.38,0,0,1-17.07,8.95,67.79,67.79,0,0,1-20.21,3q-13.77,0-24.12-4.88a36.16,36.16,0,0,1-15.9-14,39.54,39.54,0,0,1-5.55-21,53,53,0,0,1,6.71-26.6,48.05,48.05,0,0,1,18.64-18.56,54.5,54.5,0,0,1,27.18-6.71q12.92,0,22.45,4.8a34.86,34.86,0,0,1,14.75,13.76,40.33,40.33,0,0,1,5.22,20.71A70.11,70.11,0,0,1,905.33,361ZM847.82,332.4a26.35,26.35,0,0,0-8.94,13.5h44.24q0-8.61-5.38-13.5t-14.5-4.89A24.39,24.39,0,0,0,847.82,332.4Z" transform="translate(-10.03 -69.32)"/><path class="cls-2" d="M924.63,397.35q-10.36-2.57-16.16-6.71l9.95-18.72a50,50,0,0,0,14.16,6.13,62.59,62.59,0,0,0,16.82,2.32q8.79,0,13.1-2.24t4.3-6.38q0-3.31-3.81-4.8a77.06,77.06,0,0,0-12.26-3.15,115.2,115.2,0,0,1-15.83-4,26.26,26.26,0,0,1-10.77-7q-4.56-4.89-4.55-13.34,0-14.74,12.34-23t32.4-8.28a81.34,81.34,0,0,1,18.06,2,54.26,54.26,0,0,1,14.91,5.47L988,334.47q-10.93-6.8-26.34-6.8-8.46,0-12.85,2.49c-2.92,1.66-4.39,3.76-4.39,6.3q0,3.48,3.81,5.05a78.36,78.36,0,0,0,12.76,3.4,118,118,0,0,1,15.5,3.89A25.5,25.5,0,0,1,987,355.68q4.47,4.8,4.48,13.09,0,14.91-12.52,23t-32.39,8.12A90.52,90.52,0,0,1,924.63,397.35Z" transform="translate(-10.03 -69.32)"/></svg>