<svg id="Слой_1" data-name="Слой 1" xmlns="http://www.w3.org/2000/svg" viewBox="0 0 1879.13 2086.07"><defs><style>.cls-1{fill:none;stroke-width:0.25px;}.cls-1,.cls-3{stroke:#000;stroke-miterlimit:10;}.cls-2,.cls-3{fill:#fff;}</style></defs><title>revbyte_logo_new</title><path class="cls-1" d="M502.27,1615.15" transform="translate(-1613.89 -189.42)"/><path class="cls-1" d="M2560,1032.23" transform="translate(-1613.89 -189.42)"/><path class="cls-2" d="M2495.42,1349.34l-514.2-313.12,272.69-589L2557.2,189.42l299.68,367.14,1.36,2.73,280.54,564.1ZM2050.93,1015l450.77,274.5,561-197L2810.93,586.21,2550.15,266.74,2298.21,480.88Z" transform="translate(-1613.89 -189.42)"/><path class="cls-2" d="M2547.08,747.24,2729,620.9,2547.7,387.56,2367.55,537.18l-203.93,431.4,49.35,30,51.32-107.88,167.53-73.3L2548,1061.05l51.73-30L2485.1,790ZM2416.91,569.83l120.31-102.75,114.83,139.59-132.92,94.41L2303,809.32Z" transform="translate(-1613.89 -189.42)"/><path class="cls-3" d="M2729,620.9" transform="translate(-1613.89 -189.42)"/><path class="cls-3" d="M2548,751.34" transform="translate(-1613.89 -189.42)"/><path class="cls-3" d="M2571.45,790" transform="translate(-1613.89 -189.42)"/><path class="cls-3" d="M2516.46,696.67" transform="translate(-1613.89 -189.42)"/><path class="cls-2" d="M2922.64,1016,2894,915.88l-70-38.7,16.14-17.56-.12,0-28.95-100-46.46-79.18L2577.09,809l.24.42,25.75,49,59.26,110.91,23.41,44.85,59.14,111,105.41-30.72,72.46-78.42ZM2628.86,822.37,2723,757.76l12.78-9.68,23.92,5.87,15,30.81h0l19.59,58.08-64.89,68.08-43.19,10.71-46.34-80.21Zm31.27,142.2h0l.26.56-.07-.12ZM2811.92,1067l-43.22,10.59-46.12-80.33-11-19.08L2806,913.84,2857.54,941h0L2877,999.11Z" transform="translate(-1613.89 -189.42)"/><path class="cls-2" d="M1990.81,1899.66l-42.07-60.77H1902.3v60.77h-50.48V1681.52h94.42q29,0,50.33,9.66t32.88,27.42q11.52,17.76,11.53,42.07t-11.69,41.92q-11.68,17.61-33.19,27l48.93,70.12ZM1978,1732.47q-11.85-9.83-34.59-9.82H1902.3v76h41.14q22.74,0,34.59-10t11.84-28Q1989.87,1742.3,1978,1732.47Z" transform="translate(-1613.89 -189.42)"/><path class="cls-2" d="M2259.43,1829.54H2132.6a39.45,39.45,0,0,0,16.2,24.62q12.78,9,31.79,9a64.27,64.27,0,0,0,23.21-3.9,56.31,56.31,0,0,0,18.86-12.3l25.86,28q-23.68,27.12-69.18,27.11-28.37,0-50.17-11.06t-33.66-30.69q-11.85-19.64-11.84-44.57,0-24.61,11.69-44.41a81.87,81.87,0,0,1,32.09-30.85q20.41-11.05,45.66-11.06,24.61,0,44.56,10.59a77.43,77.43,0,0,1,31.32,30.39q11.37,19.79,11.38,46Q2260.37,1817.39,2259.43,1829.54Zm-113.75-53.91q-11.2,9.34-13.71,25.55h82.59q-2.51-15.89-13.72-25.39t-27.42-9.51Q2156.9,1766.28,2145.68,1775.63Z" transform="translate(-1613.89 -189.42)"/><path class="cls-2" d="M2474.77,1732,2404,1899.66h-50.17L2283.43,1732h50.17L2380,1846.06,2428,1732Z" transform="translate(-1613.89 -189.42)"/><path class="cls-2" d="M2655.05,1740.26a77.22,77.22,0,0,1,30.07,30.23Q2696,1790,2696,1815.83t-10.91,45.34a77.08,77.08,0,0,1-30.07,30.23,85.44,85.44,0,0,1-42.54,10.75q-34.59,0-52.67-21.81v19.32h-46.43V1668.43H2562v81.33q18.38-20.25,50.48-20.25A85.44,85.44,0,0,1,2655.05,1740.26Zm-20.26,109.38q12-12.62,12-33.81t-12-33.81q-12-12.63-30.69-12.62T2573.4,1782q-12,12.62-12,33.81t12,33.81q12,12.63,30.7,12.62T2634.79,1849.64Z" transform="translate(-1613.89 -189.42)"/><path class="cls-2" d="M2908.87,1732l-75.73,178q-11.52,29-28.51,40.82t-41,11.84a85.15,85.15,0,0,1-25.87-4q-12.78-4.05-20.87-11.22l17.76-34.59a41.84,41.84,0,0,0,12.93,7.79,40.29,40.29,0,0,0,14.49,2.81q10,0,16.21-4.84t11.22-16l.62-1.56L2717.53,1732h50.17l47.06,113.75L2862.13,1732Z" transform="translate(-1613.89 -189.42)"/><path class="cls-2" d="M3060.32,1891.56a50,50,0,0,1-17.6,7.94,88.93,88.93,0,0,1-22,2.65q-29.92,0-46.28-15.27T2958.11,1842v-68.87h-25.87v-37.4h25.87v-40.82h48.61v40.82h41.76v37.4h-41.76v68.25q0,10.59,5.46,16.36t15.42,5.76q11.54,0,19.64-6.23Z" transform="translate(-1613.89 -189.42)"/><path class="cls-2" d="M3264.44,1829.54H3137.61a39.45,39.45,0,0,0,16.2,24.62q12.78,9,31.79,9a64.33,64.33,0,0,0,23.22-3.9,56.27,56.27,0,0,0,18.85-12.3l25.87,28q-23.68,27.12-69.19,27.11-28.35,0-50.17-11.06t-33.66-30.69q-11.83-19.64-11.84-44.57,0-24.61,11.69-44.41a81.9,81.9,0,0,1,32.1-30.85q20.4-11.05,45.65-11.06,24.62,0,44.57,10.59a77.4,77.4,0,0,1,31.31,30.39q11.39,19.79,11.38,46Q3265.38,1817.39,3264.44,1829.54Zm-113.74-53.91q-11.22,9.34-13.71,25.55h82.58q-2.51-15.89-13.71-25.39t-27.43-9.51Q3161.92,1766.28,3150.7,1775.63Z" transform="translate(-1613.89 -189.42)"/><path class="cls-2" d="M1765.66,2075.74q24.3,20.25,24.3,55.78t-24.3,55.78q-24.32,20.26-66.69,20.26h-53.92v66.06h-31.16V2055.48H1699Q1741.35,2055.48,1765.66,2075.74Zm-22.44,92.08q15.57-12.62,15.58-36.3t-15.58-36.31q-15.59-12.61-45.19-12.62h-53v97.85h53Q1727.64,2180.44,1743.22,2167.82Z" transform="translate(-1613.89 -189.42)"/><path class="cls-2" d="M1899,2114.38q15.27-7.49,37.09-7.48v29a60.4,60.4,0,0,0-6.86-.31q-24.3,0-38.17,14.49t-13.87,41.29v82.27H1847.3V2108.46H1876v27.73A51,51,0,0,1,1899,2114.38Z" transform="translate(-1613.89 -189.42)"/><path class="cls-2" d="M2016.52,2264.59a79.05,79.05,0,0,1-30.7-30.08q-11.07-19.16-11.06-43.47t11.06-43.47a78,78,0,0,1,30.7-29.92q19.63-10.76,44.25-10.75t44.1,10.75a78.36,78.36,0,0,1,30.54,29.92q11.06,19.16,11.06,43.47t-11.06,43.47a79.45,79.45,0,0,1-30.54,30.08q-19.48,10.9-44.1,10.9T2016.52,2264.59Zm72.76-22.6a51.59,51.59,0,0,0,19.79-20.57q7.17-13.23,7.17-30.38t-7.17-30.38a50.69,50.69,0,0,0-19.79-20.42,60.36,60.36,0,0,0-57,0,51.77,51.77,0,0,0-19.94,20.42Q2005,2173.9,2005,2191t7.32,30.38a52.69,52.69,0,0,0,19.94,20.57,59.13,59.13,0,0,0,57,0Z" transform="translate(-1613.89 -189.42)"/><path class="cls-2" d="M2362.43,2042.39v231.23h-28.67v-26.17a64.89,64.89,0,0,1-25.24,20.88,78.2,78.2,0,0,1-33.66,7.16q-24,0-43-10.59a76,76,0,0,1-29.76-29.76q-10.74-19.17-10.75-44.1t10.75-43.94a76.32,76.32,0,0,1,29.76-29.61q19-10.59,43-10.59a79.07,79.07,0,0,1,32.72,6.7,63.54,63.54,0,0,1,24.93,19.79v-91ZM2305.71,2242a51.32,51.32,0,0,0,19.95-20.57q7.15-13.23,7.16-30.38t-7.16-30.38a50.44,50.44,0,0,0-19.95-20.42,60,60,0,0,0-56.87,0,51.72,51.72,0,0,0-20,20.42q-7.32,13.24-7.32,30.38t7.32,30.38a52.65,52.65,0,0,0,20,20.57,58.82,58.82,0,0,0,56.87,0Z" transform="translate(-1613.89 -189.42)"/><path class="cls-2" d="M2591.79,2108.46v165.16h-28.36v-24.93a60.1,60.1,0,0,1-23.84,19.79,74.3,74.3,0,0,1-32.25,7q-33,0-52.05-18.23t-19-53.76v-95h29.92v91.62q0,24,11.53,36.3t33,12.31q23.67,0,37.39-14.33t13.71-40.52v-85.38Z" transform="translate(-1613.89 -189.42)"/><path class="cls-2" d="M2694.47,2264.59a79.87,79.87,0,0,1-31-30.08q-11.22-19.16-11.22-43.47t11.22-43.47a78.78,78.78,0,0,1,31-29.92q19.79-10.76,45-10.75,22.44,0,40.05,9a64.39,64.39,0,0,1,27.26,26.17l-22.75,14.65a50.82,50.82,0,0,0-19.32-17.76,55.07,55.07,0,0,0-25.55-5.92,59.16,59.16,0,0,0-29.14,7.16,51.17,51.17,0,0,0-20.26,20.42q-7.32,13.24-7.32,30.38,0,17.46,7.32,30.7a51.09,51.09,0,0,0,20.26,20.41,59.06,59.06,0,0,0,29.14,7.17,55.07,55.07,0,0,0,25.55-5.93,50.66,50.66,0,0,0,19.32-17.76l22.75,14.34a65.41,65.41,0,0,1-27.26,26.33q-17.61,9.19-40.05,9.19Q2714.26,2275.49,2694.47,2264.59Z" transform="translate(-1613.89 -189.42)"/><path class="cls-2" d="M2959.2,2264a44.58,44.58,0,0,1-16.21,8.57,67.76,67.76,0,0,1-19.94,3q-24.93,0-38.64-13.4t-13.71-38.33v-90.68h-28v-24.62h28v-36.15h29.91v36.15H2948v24.62h-47.37v89.43q0,13.41,6.7,20.57t19.17,7.17q13.71,0,23.37-7.79Z" transform="translate(-1613.89 -189.42)"/><path class="cls-2" d="M3014.51,2071.06a18.37,18.37,0,0,1-5.76-13.71,18.89,18.89,0,0,1,5.76-13.87,19.65,19.65,0,0,1,14.49-5.76,20.26,20.26,0,0,1,14.49,5.45,17.93,17.93,0,0,1,5.77,13.56,19.28,19.28,0,0,1-5.77,14.17,19.62,19.62,0,0,1-14.49,5.77A19.93,19.93,0,0,1,3014.51,2071.06Zm-.47,37.4H3044v165.16H3014Z" transform="translate(-1613.89 -189.42)"/><path class="cls-2" d="M3146.17,2264.59a79,79,0,0,1-30.69-30.08q-11.07-19.16-11.06-43.47t11.06-43.47a78,78,0,0,1,30.69-29.92q19.64-10.76,44.26-10.75t44.09,10.75a78.29,78.29,0,0,1,30.54,29.92q11.05,19.16,11.07,43.47t-11.07,43.47a79.38,79.38,0,0,1-30.54,30.08q-19.47,10.9-44.09,10.9T3146.17,2264.59Zm72.77-22.6a51.66,51.66,0,0,0,19.79-20.57q7.17-13.23,7.17-30.38t-7.17-30.38a50.76,50.76,0,0,0-19.79-20.42,60.36,60.36,0,0,0-57,0,51.77,51.77,0,0,0-19.94,20.42q-7.33,13.24-7.33,30.38t7.33,30.38a52.69,52.69,0,0,0,19.94,20.57,59.13,59.13,0,0,0,57,0Z" transform="translate(-1613.89 -189.42)"/><path class="cls-2" d="M3474.48,2125.13q18.54,18.23,18.54,53.44v95H3463.1V2182q0-24-11.53-36.15t-33-12.15q-24.3,0-38.33,14.18t-14,40.67v85.07h-29.92V2108.46h28.67v24.93a58.2,58.2,0,0,1,24.46-19.64q15.43-6.84,35.06-6.85Q3455.93,2106.9,3474.48,2125.13Z" transform="translate(-1613.89 -189.42)"/></svg>