<svg xmlns="http://www.w3.org/2000/svg" viewBox="0 0 971.69 312.68"><defs><style>.cls-1{fill:#fff;}</style></defs><title>REDESIGN-LOGO-REBYTE</title><g id="Слой_11" data-name="Слой 11"><path class="cls-1" d="M221.24,294.11h-63V254h-1.47l-51,80.09L149,395l41.66-58.66Z" transform="translate(-41.59 -82.3)"/><path class="cls-1" d="M109.57,248.71A34.9,34.9,0,0,0,125.21,236a31.65,31.65,0,0,0,2.87-5.47l-17.57.21,14.92-34.07-.14-.25a35.33,35.33,0,0,0-15.49-12.92Q99.74,179,86.08,179H41.59V281.75H65.37V253.12H87.25l19.83,28.63h2.49l8.52-20.84Zm-8.51-19.24q-5.58,4.71-16.3,4.7H65.37V198.34H84.76q10.71,0,16.3,4.63t5.58,13.29Q106.64,224.78,101.06,229.47Z" transform="translate(-41.59 -82.3)"/><path class="cls-1" d="M257.86,237.62a27.15,27.15,0,0,0-13.8-9.32,24.7,24.7,0,0,0,13.66-22.61,22.77,22.77,0,0,0-10.06-19.53Q237.59,179,218.8,179H198.3l-17,27,5.73.19-18.46,29v46.54h53.16q20.12,0,30.62-7.27t10.5-20.78Q262.86,244.16,257.86,237.62Zm-65.64-40.74h23.65q8.81,0,13.36,3t4.55,9a10.29,10.29,0,0,1-4.55,9.1q-4.56,3.09-13.36,3.08H192.22Zm41.93,63.87q-4.77,3.09-14.17,3.09H192.22V238.43H220q18.95,0,18.94,12.78Q238.92,257.68,234.15,260.75Z" transform="translate(-41.59 -82.3)"/><polygon class="cls-1" points="165.47 63.84 112.06 76.09 82.37 143.88 102.19 143.64 68.36 226.42 130.89 128.13 125.22 127.94 165.47 63.84"/><path class="cls-1" d="M132.61,182.89l.14.22,15.11-34.49L185.51,140,149,82.3,95.86,166.13a53.22,53.22,0,0,1,21.81,4.26A34.13,34.13,0,0,1,132.61,182.89Z" transform="translate(-41.59 -82.3)"/><path class="cls-1" d="M361.62,173.4A26.31,26.31,0,0,1,348,182.6l11.33,20.06H343.42L333.2,184.45H320.38l-3.62,18.21H301.62l13-65h26.47q12.07,0,18.77,5.29t6.69,14.87A25.11,25.11,0,0,1,361.62,173.4ZM347.18,169q4.13-3.43,4.13-9.84,0-4.65-3.16-7c-2.1-1.54-5.1-2.32-9-2.32H327.26l-4.56,22.57h12.82Q343.05,172.47,347.18,169Z" transform="translate(-41.59 -82.3)"/><path class="cls-1" d="M400.07,149.71l-2.78,14.12h30.18l-2.32,11.71H394.87l-3,15h35.48l-2.51,12.08H374.53l13-65h49.14l-2.51,12.07Z" transform="translate(-41.59 -82.3)"/><path class="cls-1" d="M516.09,137.64l-41.15,65H460.17l-15.14-65h15.51L471,184l29.44-46.35Z" transform="translate(-41.59 -82.3)"/><path class="cls-1" d="M574.18,174.1a13.77,13.77,0,0,1,2.28,8q0,10.13-8,15.33t-21.27,5.2H513.11l13-65h31.39q10.5,0,16.16,3.85a12.52,12.52,0,0,1,5.67,11,16.69,16.69,0,0,1-3.11,10.17,19.62,19.62,0,0,1-8.5,6.46A13.83,13.83,0,0,1,574.18,174.1ZM558,188.91a7.9,7.9,0,0,0,3.53-7q0-6.69-9.75-6.69h-18.2l-3.16,16.07h17.74Q554.45,191.33,558,188.91ZM538.75,149l-3.07,15.33H551q5.94,0,9.24-2.37a7.9,7.9,0,0,0,3.3-6.83q0-6.12-9.57-6.13Z" transform="translate(-41.59 -82.3)"/><path class="cls-1" d="M623.09,180.09l-4.46,22.57h-15l4.55-23.22-16.72-41.8h15.05l11.61,29,23.31-29h15.51Z" transform="translate(-41.59 -82.3)"/><path class="cls-1" d="M677.61,149.9H656.8l2.51-12.26H716l-2.51,12.26H692.75l-10.59,52.76h-15Z" transform="translate(-41.59 -82.3)"/><path class="cls-1" d="M741.23,149.71l-2.78,14.12h30.18l-2.32,11.71H736l-3,15h35.48L766,202.66H715.69l13-65h49.14l-2.51,12.07Z" transform="translate(-41.59 -82.3)"/><path class="cls-1" d="M359.62,279.31q6.64,5.35,6.64,14.91a26.06,26.06,0,0,1-3.85,14.26,24.78,24.78,0,0,1-11,9.33,40,40,0,0,1-16.77,3.26H320.19L316.66,339H301.52l13-65h26.28Q353,274,359.62,279.31Zm-12.68,26.06q4.1-3.44,4.09-9.85,0-4.63-3.11-7c-2.08-1.55-5.06-2.33-9-2.33H327.16l-4.55,22.58h12.72Q342.86,308.81,346.94,305.37Z" transform="translate(-41.59 -82.3)"/><path class="cls-1" d="M433.23,309.73a26.25,26.25,0,0,1-13.65,9.2L430.91,339H415l-10.22-18.2H392L388.37,339H373.23l13-65H412.7q12.07,0,18.77,5.3t6.68,14.86A25.09,25.09,0,0,1,433.23,309.73Zm-14.44-4.36q4.13-3.44,4.13-9.85,0-4.63-3.16-7c-2.1-1.55-5.11-2.33-9-2.33H398.86l-4.55,22.58h12.82Q414.66,308.81,418.79,305.37Z" transform="translate(-41.59 -82.3)"/><path class="cls-1" d="M463,336.58a25.53,25.53,0,0,1-11-9.94,28.35,28.35,0,0,1-3.81-14.77A39.4,39.4,0,0,1,453.25,292a36.39,36.39,0,0,1,14.21-14,42.18,42.18,0,0,1,20.94-5.11,37.88,37.88,0,0,1,16.91,3.53,25.58,25.58,0,0,1,11,9.94,28.32,28.32,0,0,1,3.8,14.77A39.4,39.4,0,0,1,515,321a36.52,36.52,0,0,1-14.21,14,42.28,42.28,0,0,1-20.94,5.11A37.85,37.85,0,0,1,463,336.58Zm30.75-12.73a22.77,22.77,0,0,0,8.26-9.19,28.05,28.05,0,0,0,2.88-12.73q0-7.43-4.64-11.84t-13.1-4.41a22.47,22.47,0,0,0-20.8,12.63A28,28,0,0,0,463.42,311q0,7.44,4.64,11.85t13.1,4.41A22.86,22.86,0,0,0,493.7,323.85Z" transform="translate(-41.59 -82.3)"/><path class="cls-1" d="M542.18,274h27.21a40.85,40.85,0,0,1,17.14,3.3,25,25,0,0,1,11.06,9.43,26.58,26.58,0,0,1,3.85,14.4A38.2,38.2,0,0,1,596.33,321a34.45,34.45,0,0,1-14.26,13.28A45.64,45.64,0,0,1,560.94,339H529.18Zm19.23,52.67a26.22,26.22,0,0,0,13.23-3.21,21.52,21.52,0,0,0,8.59-8.82,26.61,26.61,0,0,0,3-12.68q0-7.33-4.74-11.47t-13.75-4.13H554.81l-8.08,40.31Z" transform="translate(-41.59 -82.3)"/><path class="cls-1" d="M622,334q-7-6.07-7-16.67a38.26,38.26,0,0,1,.74-7L623,274h15.14l-7.25,36.14a31,31,0,0,0-.55,5.48c0,3.9,1.06,6.82,3.2,8.77s5.25,2.93,9.33,2.93q6.89,0,11-4.09t5.94-13.09L667,274h14.77L674.45,311q-6,29.09-33.26,29.08Q628.93,340.11,622,334Z" transform="translate(-41.59 -82.3)"/><path class="cls-1" d="M705.51,336.58a26,26,0,0,1-11.19-9.94,27.85,27.85,0,0,1-3.9-14.77A39.5,39.5,0,0,1,695.48,292a36.39,36.39,0,0,1,14.26-14,42.64,42.64,0,0,1,21.08-5.11,37.67,37.67,0,0,1,15.42,3,22,22,0,0,1,10.13,8.55l-10.87,8.91q-5.21-7.6-15.7-7.61A23.73,23.73,0,0,0,717.17,289a23,23,0,0,0-8.5,9.1,27.24,27.24,0,0,0-3,12.82q0,7.53,4.79,11.94t13.42,4.41a22.6,22.6,0,0,0,17.27-7.52l8.92,9.1q-9.66,11.24-27.49,11.24A38.78,38.78,0,0,1,705.51,336.58Z" transform="translate(-41.59 -82.3)"/><path class="cls-1" d="M784.42,286.23H763.61L766.12,274h56.66l-2.51,12.26H799.56L789,339H773.92Z" transform="translate(-41.59 -82.3)"/><path class="cls-1" d="M835.5,274h15.14l-13,65H822.5Z" transform="translate(-41.59 -82.3)"/><path class="cls-1" d="M874.42,336.58a25.53,25.53,0,0,1-11-9.94,28.35,28.35,0,0,1-3.81-14.77A39.5,39.5,0,0,1,864.71,292a36.48,36.48,0,0,1,14.22-14,42.15,42.15,0,0,1,20.94-5.11,37.88,37.88,0,0,1,16.91,3.53,25.58,25.58,0,0,1,11,9.94,28.42,28.42,0,0,1,3.8,14.77A39.4,39.4,0,0,1,926.48,321a36.52,36.52,0,0,1-14.21,14,42.28,42.28,0,0,1-20.94,5.11A37.85,37.85,0,0,1,874.42,336.58Zm30.74-12.73a22.72,22.72,0,0,0,8.27-9.19,28.05,28.05,0,0,0,2.88-12.73q0-7.43-4.64-11.84t-13.1-4.41a22.5,22.5,0,0,0-20.81,12.63A28,28,0,0,0,874.88,311q0,7.44,4.65,11.85t13.1,4.41A22.8,22.8,0,0,0,905.16,323.85Z" transform="translate(-41.59 -82.3)"/><path class="cls-1" d="M1013.28,274l-13,65H987.92l-24.24-40.68L955.51,339H940.65l13-65H966.1l24.24,40.78L998.42,274Z" transform="translate(-41.59 -82.3)"/></g></svg>