<svg id="Слой_1" data-name="Слой 1" xmlns="http://www.w3.org/2000/svg" viewBox="0 0 1725.14 1728.67"><defs><style>.cls-1,.cls-2,.cls-4{fill:none;stroke-miterlimit:10;}.cls-1,.cls-4{stroke:#000;}.cls-1{stroke-width:0.25px;}.cls-2{stroke:#fff;stroke-width:81px;}.cls-3{fill:#fff;}</style></defs><title>Безымянный-2</title><path class="cls-1" d="M502.27,1615.15" transform="translate(-1699.8 -409.14)"/><polygon class="cls-2" points="1270.78 569.26 853.15 57.62 439.41 409.28 51.94 1246.23 771.01 1684.1 1668.46 1368.91 1270.78 569.26"/><path class="cls-3" d="M2543.12,1240.48l271.1-188.29L2544,704.44l-268.48,223-303.92,642.93,73.54,44.67,76.49-160.78L2371.34,1345l173.19,363.16,77.1-44.75-170.89-359.19Zm-194-264.4L2528.42,823l171.14,208-198.1,140.69L2179.33,1333Z" transform="translate(-1699.8 -409.14)"/><path class="cls-1" d="M2079.63,1665.21" transform="translate(-1699.8 -409.14)"/><path class="cls-4" d="M2814.22,1052.19" transform="translate(-1699.8 -409.14)"/><path class="cls-4" d="M2544.53,1246.59" transform="translate(-1699.8 -409.14)"/><path class="cls-4" d="M2579.43,1304.22" transform="translate(-1699.8 -409.14)"/><path class="cls-4" d="M2497.48,1165.11" transform="translate(-1699.8 -409.14)"/><path class="cls-3" d="M3102.83,1641l-42.74-149.18-104.33-57.68,24-26.16-.18-.06-43.14-149.07-69.24-118-279.41,191.74.36.62,38.37,73,88.32,165.3,34.88,66.83,88.14,165.36,157.1-45.78,108-116.88ZM2665,1352.45l140.33-96.3,19-14.42,35.65,8.76,22.29,45.91h0l29.2,86.55-96.71,101.46-64.36,16-69.07-119.54Zm46.61,211.93,0,0,.38.85-.09-.18Zm226.21,152.67-64.41,15.8-68.74-119.73-16.32-28.44,140.58-95.91,76.89,40.45h0l29,86.63Z" transform="translate(-1699.8 -409.14)"/></svg>